<svg xmlns="http://www.w3.org/2000/svg" xml:space="preserve" width="925.07" height="72.134" style="shape-rendering:geometricPrecision;text-rendering:geometricPrecision;image-rendering:optimizeQuality;fill-rule:evenodd;clip-rule:evenodd" viewBox="0 0 19648.03 1532.09"><defs><style>.fil0{fill:#9e4d41;fill-rule:nonzero}</style></defs><g id="Livello_x0020_1"><path d="m10996.34 1163.75-1.83-10.97c-3.65-27.41-9.14-115.1-12.79-259.43-5.48-144.33-7.31-303.26-7.31-475 0-69.42 0-133.36 1.82-191.83 1.83-58.46 3.66-105.96 5.48-142.5l1.83-14.62c1.82-25.58 9.14-43.85 20.09-52.98 9.14-9.14 29.23-14.62 54.81-14.62 10.96 0 32.88 1.83 62.11 5.48 1.83 1.83 3.66 1.83 5.48 1.83l10.97 1.82 9.14 1.83c95 18.27 142.5 49.33 142.5 95V129.68c0 7.31-5.48 89.52-16.44 242.99-12.79 155.28-20.1 308.75-25.58 458.56 76.73-147.98 144.33-288.65 200.96-422.02 56.63-133.36 100.48-244.81 127.88-334.32l1.83-10.97c5.48-20.09 14.62-34.71 23.75-43.85 9.14-9.14 21.92-14.61 36.54-14.61 10.97 0 25.58 1.82 43.85 3.65 20.09 3.65 38.36 7.31 58.46 12.79l9.14 3.65c51.15 14.62 85.86 25.58 102.3 36.54 16.44 10.96 25.58 23.75 25.58 40.19 0 3.66 0 7.31-1.82 14.62-1.83 5.48-3.65 14.62-9.14 27.41l-3.65 12.79c-23.75 67.59-52.98 142.5-89.52 228.37-36.53 84.03-78.56 171.72-122.4 261.25-56.63 113.27-113.27 219.23-171.73 321.53-58.46 102.31-113.27 188.17-162.59 261.26l-9.14 12.79c-14.62 20.09-25.58 31.05-34.71 38.36-9.14 5.48-20.1 7.31-31.06 7.31-12.79 0-27.41-1.82-43.85-3.65-16.44-3.65-32.89-7.31-49.33-10.97l-16.44-5.47c-5.48-1.83-12.79-3.65-23.75-7.31-69.42-20.09-107.79-52.97-111.44-96.82z" class="fil0"/><path id="_1" d="M12177.14 697.88h138.84c3.65-63.94 7.31-120.57 9.14-169.9 1.82-47.5 3.65-85.86 3.65-111.44V305.1c-29.23 62.12-56.63 126.06-82.21 190-25.58 63.94-47.5 131.53-69.42 202.78zM11767.9 977.4l-21.92-1.82c-9.14-1.83-16.44-5.48-21.92-12.79-5.48-9.14-9.14-18.27-9.14-29.24 0-3.65 1.83-12.79 3.65-25.58 3.66-10.96 9.14-34.71 16.45-69.42l1.82-12.79 1.83-3.65c21.92-95.01 56.63-144.33 104.13-144.33h54.8c49.33-122.4 98.66-233.85 146.16-337.98 47.5-102.31 89.52-186.34 126.06-248.46l10.97-18.27c18.27-29.23 34.71-49.33 47.5-58.46 14.61-9.13 32.88-14.61 54.8-14.61 9.14 0 20.1 0 32.89 1.82 14.61 1.83 27.4 3.66 43.85 5.48l16.44 1.83c67.59 9.14 111.44 21.92 131.54 36.53 20.09 14.62 32.88 38.37 36.53 74.9l3.66 21.92c10.96 84.04 18.26 197.31 25.58 336.15 5.48 138.85 9.14 288.65 9.14 447.6 0 82.21-1.83 155.28-5.48 221.05v7.31l-1.83 20.09c-3.65 40.19-14.61 67.6-32.88 84.04-18.27 14.61-51.15 23.75-100.48 25.58l-14.62 1.83h-23.75c-38.37 0-67.6-5.48-85.87-20.1-18.26-12.79-29.23-32.88-29.23-60.29V807.47l-58.46 131.54c-5.47 14.62-12.79 25.58-23.75 31.06-9.14 7.31-23.75 9.14-42.02 9.14h-87.68c-27.41 67.59-54.81 135.19-82.22 206.44-5.47 14.61-10.96 25.58-10.96 27.4l-7.31 20.1c-9.13 18.27-18.26 32.88-29.23 42.02-10.96 9.14-25.58 12.79-42.02 12.79-12.79 0-27.41-1.82-42.02-3.65-16.44-3.65-31.05-7.31-45.67-12.79l-14.62-3.65c-42.02-14.62-69.42-27.41-84.04-38.36-14.61-12.8-21.92-27.41-21.92-43.85v-12.8c1.83-3.65 1.83-9.13 3.66-16.44l3.65-12.79c3.65-12.79 10.96-34.71 21.92-65.77 12.79-29.23 25.58-63.94 42.02-100.48z" class="fil0"/><path id="_2" d="M13072.33 955.48h297.79c18.26 0 32.88 3.65 42.02 9.14 9.14 7.31 14.62 16.44 14.62 29.23 0 9.14-1.83 23.75-5.48 40.19-3.65 18.27-10.97 40.19-20.1 69.42l-1.82 7.31c-21.92 71.24-40.19 115.09-54.81 129.71-14.61 12.79-40.19 20.09-74.9 21.92h-334.32c-18.27 0-32.88-3.65-43.85-9.14-10.96-5.48-23.75-16.44-34.71-31.06-43.85-51.15-74.9-95-95-129.71-20.1-34.71-29.24-62.12-29.24-85.86 0-5.48 1.83-14.62 3.66-25.58 3.65-10.96 5.47-18.26 5.47-23.75l3.65-21.92c36.54-173.56 73.08-337.98 113.28-493.27 40.19-157.11 74.9-281.35 104.13-372.69l7.31-16.44c5.48-21.92 14.62-34.71 23.75-42.02 10.96-5.47 25.58-9.14 45.67-9.14 7.31 0 20.1 0 36.54 1.83 14.61 1.83 32.88 3.65 51.15 7.31l12.79 1.83c65.77 10.96 107.79 20.09 126.06 29.23 18.27 9.14 27.41 23.75 27.41 40.19 0 1.83 0 5.48-1.83 10.97-1.82 5.47-1.82 7.31-1.82 9.13l-5.48 20.1c-9.14 32.88-23.75 87.69-43.85 164.42-71.25 266.73-127.89 489.61-168.07 668.65z" class="fil0"/><path id="_3" d="M14144.73 752.69h14.62c42.02 1.82 71.25 9.14 93.18 25.58 20.09 16.44 29.23 40.19 29.23 71.24 0 42.02-10.97 87.69-32.89 137.02-21.92 49.33-51.15 95-87.69 138.84-43.85 49.33-93.17 89.52-149.8 118.75-56.63 27.41-111.45 42.02-168.08 42.02-95 0-169.9-36.54-226.54-111.45-54.8-73.07-82.21-175.39-82.21-303.27 0-100.48 14.61-204.61 45.67-310.57 29.24-105.96 71.25-200.97 124.23-283.18 58.46-93.17 124.23-162.59 197.31-208.27 71.24-45.68 151.63-67.6 242.98-67.6 78.56 0 142.5 21.92 188.17 67.6 45.68 43.85 69.42 104.13 69.42 180.87 0 76.73-14.61 135.19-42.02 175.38-29.23 38.37-71.25 60.29-127.89 62.12h-23.75c-38.37 0-67.6-5.48-87.69-14.61-21.92-10.97-32.89-25.58-32.89-43.85 0-12.79 3.65-27.41 10.97-47.51 7.31-18.26 10.96-32.88 10.96-42.02 0-10.96-3.65-18.27-9.14-25.58-7.31-5.48-16.44-9.14-27.41-9.14-18.26 0-36.53 10.97-54.8 31.06-18.27 21.92-40.19 56.63-65.77 107.79-36.54 73.08-63.94 149.81-84.04 233.85-20.09 82.21-31.06 157.11-31.06 226.54 0 25.58 3.66 45.67 10.97 60.29 9.14 12.79 18.27 20.1 32.88 20.1 23.75 0 45.68-23.75 63.95-71.25 16.44-47.5 31.06-78.56 40.19-91.35 14.61-21.92 36.53-38.36 63.94-51.16 27.41-10.96 58.46-18.26 89.51-18.26h5.48z" class="fil0"/><path id="_4" d="M14816.74 697.88h138.84c3.65-63.94 7.31-120.57 9.14-169.9 1.82-47.5 3.65-85.86 3.65-111.44V305.1c-29.23 62.12-56.63 126.06-82.21 190-25.58 63.94-47.5 131.53-69.42 202.78zM14407.5 977.4l-21.92-1.82c-9.14-1.83-16.44-5.48-21.92-12.79-5.48-9.14-9.14-18.27-9.14-29.24 0-3.65 1.83-12.79 3.65-25.58 3.66-10.96 9.14-34.71 16.45-69.42l1.82-12.79 1.83-3.65c21.92-95.01 56.63-144.33 104.13-144.33h54.8c49.33-122.4 98.66-233.85 146.16-337.98 47.5-102.31 89.52-186.34 126.06-248.46l10.97-18.27c18.27-29.23 34.71-49.33 47.5-58.46 14.61-9.13 32.88-14.61 54.8-14.61 9.14 0 20.1 0 32.89 1.82 14.61 1.83 27.4 3.66 43.85 5.48l16.44 1.83c67.59 9.14 111.44 21.92 131.54 36.53 20.09 14.62 32.88 38.37 36.53 74.9l3.66 21.92c10.96 84.04 18.26 197.31 25.58 336.15 5.48 138.85 9.14 288.65 9.14 447.6 0 82.21-1.83 155.28-5.48 221.05v7.31l-1.83 20.09c-3.65 40.19-14.61 67.6-32.88 84.04-18.27 14.61-51.15 23.75-100.48 25.58l-14.62 1.83h-23.75c-38.37 0-67.6-5.48-85.87-20.1-18.26-12.79-29.23-32.88-29.23-60.29V807.47l-58.46 131.54c-5.47 14.62-12.79 25.58-23.75 31.06-9.14 7.31-23.75 9.14-42.02 9.14h-87.68c-27.41 67.59-54.81 135.19-82.22 206.44-5.47 14.61-10.96 25.58-10.96 27.4l-7.31 20.1c-9.13 18.27-18.26 32.88-29.23 42.02-10.96 9.14-25.58 12.79-42.02 12.79-12.79 0-27.41-1.82-42.02-3.65-16.44-3.65-31.05-7.31-45.67-12.79l-14.62-3.65c-42.02-14.62-69.42-27.41-84.04-38.36-14.61-12.8-21.92-27.41-21.92-43.85v-12.8c1.83-3.65 1.83-9.13 3.66-16.44l3.65-12.79c3.65-12.79 10.96-34.71 21.92-65.77 12.79-29.23 25.58-63.94 42.02-100.48z" class="fil0"/><path id="_5" d="M15711.93 955.48h297.79c18.26 0 32.88 3.65 42.02 9.14 9.14 7.31 14.62 16.44 14.62 29.23 0 9.14-1.83 23.75-5.48 40.19-3.65 18.27-10.97 40.19-20.1 69.42l-1.82 7.31c-21.92 71.24-40.19 115.09-54.81 129.71-14.61 12.79-40.19 20.09-74.9 21.92h-334.32c-18.27 0-32.88-3.65-43.85-9.14-10.96-5.48-23.75-16.44-34.71-31.06-43.85-51.15-74.9-95-95-129.71-20.1-34.71-29.24-62.12-29.24-85.86 0-5.48 1.83-14.62 3.66-25.58 3.65-10.96 5.47-18.26 5.47-23.75l3.65-21.92c36.54-173.56 73.08-337.98 113.28-493.27 40.19-157.11 74.9-281.35 104.13-372.69l7.31-16.44c5.48-21.92 14.62-34.71 23.75-42.02 10.96-5.47 25.58-9.14 45.67-9.14 7.31 0 20.1 0 36.54 1.83 14.61 1.83 32.88 3.65 51.15 7.31l12.79 1.83c65.77 10.96 107.79 20.09 126.06 29.23 18.27 9.14 27.41 23.75 27.41 40.19 0 1.83 0 5.48-1.83 10.97-1.82 5.47-1.82 7.31-1.82 9.13l-5.48 20.1c-9.14 32.88-23.75 87.69-43.85 164.42-71.25 266.73-127.89 489.61-168.07 668.65z" class="fil0"/><path id="_6" d="M16256.35 822.12h-23.75c-12.79-1.83-21.92-5.48-25.58-12.79-5.47-5.48-9.14-18.27-9.14-32.89 0-10.96 1.83-21.92 1.83-36.53 1.83-14.62 3.65-31.06 7.31-49.33l1.83-10.97c10.96-58.46 21.92-95 34.71-111.44 10.96-14.62 27.41-23.75 51.15-23.75l38.36-1.82 54.81-221.06h-31.06c-10.96 1.83-20.09 1.83-21.92 1.83-14.62 0-25.58-1.83-34.71-7.31-7.31-3.66-10.97-9.14-10.97-18.27 0-10.97 5.48-36.54 16.45-74.9 3.65-20.1 7.31-34.71 10.96-45.68l1.83-10.96 3.65-10.97c20.09-78.56 45.67-120.57 76.73-122.4l23.75-1.82h10.96c73.08-3.65 153.46-5.48 242.99-5.48 52.98 0 104.13 0 157.11 1.83 51.15 0 107.79 3.65 168.07 5.47h20.1c16.44 0 31.06 3.65 40.19 10.97 9.14 7.31 14.61 14.61 14.61 25.58 0 12.79-1.82 27.41-5.47 47.5-1.83 20.09-7.31 42.02-12.8 63.94l-3.65 14.62c0 3.65-1.82 7.31-3.65 12.79-20.09 80.39-49.33 120.58-85.86 120.58h-43.85c-84.04-5.48-179.04-7.31-286.83-7.31h-16.44c-36.53 1.83-71.24 1.83-104.13 1.83l113.27 49.33c10.97 5.47 20.1 12.79 29.23 23.75 9.14 9.14 12.8 18.27 12.8 25.58 0 3.65-1.83 7.31-1.83 14.62-1.83 1.83-1.83 1.83-1.83 3.65l-18.26 96.83c16.44 0 32.88-1.83 47.5-1.83h42.02c58.46 0 111.45 1.83 160.77 3.66h9.14l23.75 1.82c16.44 1.83 27.4 5.48 34.71 10.97 7.31 7.31 10.96 16.44 10.96 31.05 0 10.97-1.82 25.58-3.65 42.02-1.82 16.44-5.48 32.88-10.96 51.15l-1.83 9.14c-14.62 58.46-27.41 95-42.02 113.27-12.79 16.44-36.54 25.58-69.42 25.58H16817.23c-10.97 0-25.58 0-45.68-1.82-51.15-1.83-84.04-1.83-100.48-1.83h-52.98c-21.92 1.83-38.36 1.83-47.5 1.83l-32.88 140.67c3.65 0 23.75 0 63.94-1.83h169.9c16.44 0 31.06 1.83 47.5 1.83l18.27 1.82c27.41 1.83 45.68 5.48 56.63 14.62 9.14 9.14 14.62 25.58 14.62 49.33 0 12.79-1.83 23.75-1.83 38.36-1.82 12.79-3.65 25.58-7.31 40.19l-3.65 16.44c-9.14 49.32-21.92 85.86-38.37 107.79-16.44 20.1-38.36 31.06-69.42 31.06h-392.79c-40.19 0-69.42-5.48-87.69-16.44-18.27-10.97-36.53-31.06-54.8-58.46l-7.31-10.96c-14.62-21.92-25.58-42.02-31.06-56.63-3.66-16.45-7.31-32.89-7.31-49.33 0-7.31 0-12.79 1.83-20.1 0-9.13 1.82-20.09 5.48-34.71l42.02-193.65z" class="fil0"/><path id="_7" d="m17112.87 1165.57 1.82-10.96c3.66-31.06 25.58-122.4 67.6-277.7 40.19-155.28 87.69-325.19 144.33-513.36-7.31 3.65-18.27 7.31-32.89 14.61-63.94 27.41-102.3 42.02-113.27 42.02-9.13 0-16.44-3.65-21.92-10.97-5.47-7.31-7.31-18.27-7.31-32.88 0-40.19 7.31-87.69 21.92-138.85 14.62-52.97 31.06-93.17 49.33-122.4 23.75-34.72 67.59-63.95 133.36-84.04 65.77-20.1 146.16-31.06 237.5-31.06 144.33 0 257.6 36.53 339.81 109.62 82.21 73.07 124.23 173.56 124.23 299.61 0 71.25-18.27 146.16-56.63 221.06-36.54 76.73-85.87 138.84-146.16 190-38.36 32.89-84.04 58.46-135.19 80.39-52.98 20.09-96.83 31.06-133.36 31.06-10.97 0-20.1-3.66-27.41-9.14-7.31-5.48-10.97-14.62-12.79-27.41l-20.1-124.23c-21.92 105.96-42.02 195.49-58.46 270.39-16.44 73.07-31.06 127.88-40.19 164.42l-3.65 10.96c-7.31 29.24-16.44 47.51-25.58 56.63-9.14 10.97-23.75 14.62-43.85 14.62-14.62 0-31.06 0-47.5-1.82-18.27-1.83-32.89-5.48-47.51-7.31l-10.96-1.82c-52.98-10.97-89.52-21.92-109.62-32.89-20.09-12.79-29.23-29.23-29.23-49.33 1.82-7.31 1.82-16.44 3.65-29.23zm462.21-529.81c56.63-10.96 100.48-34.71 135.19-71.24 34.71-36.54 51.15-78.56 51.15-126.06 0-47.51-18.26-82.22-52.97-109.62-32.89-25.58-82.22-38.37-144.33-38.37-27.41 0-54.81 1.83-82.22 5.48-27.4 5.48-54.8 10.97-82.21 20.1l135.19 43.84c31.06 9.14 52.98 20.1 67.6 34.72 12.79 14.61 20.09 31.05 20.09 52.97v16.45c-1.82 5.47-1.82 10.96-3.65 14.61l-43.85 157.11z" class="fil0"/><path id="_8" d="M18095.44 1127.21c9.14-45.68 23.75-111.45 43.85-197.31 20.1-87.69 42.02-180.87 65.77-281.35 40.19-158.94 71.25-275.86 93.18-352.59 21.92-76.73 42.02-146.15 63.94-208.27l5.48-16.44c9.14-27.41 20.09-45.68 31.06-54.81 10.96-9.14 27.41-14.62 49.33-14.62 16.44 0 31.06 0 45.67 1.83 12.79 0 25.58 0 36.54 1.83l12.79 1.82c58.46 7.31 96.83 16.44 116.92 27.41 20.1 9.14 29.23 23.75 29.23 42.02 0 3.65 0 7.31-1.82 10.97 0 5.48-1.83 9.14-3.65 14.61l-3.65 16.45c-12.8 47.5-31.06 118.74-54.81 211.92-107.79 407.41-177.21 690.58-206.44 844.04l-3.65 21.92c-7.31 34.71-18.27 58.46-32.88 71.25-12.79 14.61-34.71 20.09-63.95 20.09-9.14 0-20.09 0-34.71-1.82-12.79-1.83-27.4-5.48-40.19-7.31l-7.31-1.82c-60.29-12.79-98.65-27.41-116.92-42.02-20.1-14.61-29.23-36.53-29.23-67.59 0-1.83 1.82-7.31 1.82-16.45 0-5.47 1.83-9.13 1.83-10.96l1.82-12.79z" class="fil0"/><path id="_9" d="m19304.87 237.49-14.62 54.81c-5.47 20.09-20.09 38.36-42.02 54.8-3.65 1.83-7.31 3.66-9.14 5.48-67.59 49.33-118.75 116.92-157.11 200.96-38.36 84.04-56.63 175.39-56.63 274.04 0 49.33 7.31 87.69 21.92 116.93 14.62 27.4 34.71 42.02 58.46 42.02 54.8 0 105.96-56.63 155.28-168.07 47.5-113.28 73.07-246.64 73.07-401.92 0-36.54-1.82-69.43-7.31-98.66-5.48-29.23-12.79-56.63-21.92-80.39zm14.62-85.86 135.19-105.96c14.61-10.96 25.58-18.26 32.88-21.92 7.31-3.65 14.62-5.47 21.92-5.47 38.36 0 71.25 36.53 98.66 107.79 25.58 71.25 40.19 164.42 40.19 275.87 0 105.96-10.96 208.27-34.71 303.26-21.92 96.83-54.8 184.52-98.65 264.91-54.8 100.48-120.57 179.04-195.48 235.67-74.9 54.8-153.46 82.21-235.67 82.21-107.79 0-195.49-43.85-263.08-131.54-65.77-87.69-98.66-204.61-98.66-348.94 0-96.83 14.62-193.66 47.51-290.48 31.05-98.66 74.9-184.52 129.71-263.08 54.8-76.74 116.92-138.84 184.52-184.52 67.59-43.85 131.54-67.6 188.17-67.6 20.09 0 36.53 5.48 47.5 14.62 12.79 9.14 18.27 21.92 18.27 38.36v7.31c-1.83 1.82-1.83 3.65-1.83 5.47l-16.44 84.04z" class="fil0"/><path d="M367.19 725.72V977.7h-77.75v228.95H.01V587.48c0-107.99 31.68-195.83 96.48-263.51 64.79-66.24 151.19-99.36 262.07-99.36 102.23 0 185.75 36 247.67 107.99 61.92 72 92.16 156.95 92.16 256.31v617.73H408.97V580.27c-1.44-15.84-5.76-31.68-14.4-46.08-10.07-14.4-23.04-21.6-41.76-23.04-21.59 0-37.43 7.2-47.51 23.04-10.08 15.84-15.84 34.56-15.84 54.72v136.8h77.75z" class="fil0"/><path id="_1_0" d="M1236.91 917.23v241.91c-18.72 7.2-36 12.96-53.28 15.84-18.72 4.32-37.44 5.76-56.16 5.76-93.59 0-168.47-34.56-221.75-103.68-54.72-69.12-82.07-146.87-82.07-234.71 0-95.04 36-177.11 107.99-246.23 72-69.12 154.07-103.68 247.67-103.68 99.36 0 185.75 34.56 259.18 103.68 73.44 70.55 109.44 155.52 109.44 256.31v286.54c0 106.56-38.88 198.71-118.08 276.47-79.2 77.76-171.36 116.64-276.47 116.64-21.6 0-43.2-2.88-64.8-7.2-21.6-4.32-44.64-11.52-66.24-18.72v-239.03c14.4 7.2 30.24 14.39 46.08 20.16 15.84 4.32 31.68 7.2 47.51 7.2 43.2 0 82.08-14.4 115.2-43.2 33.12-30.24 48.96-66.24 48.96-110.88V850.98c0-28.79-7.2-54.72-21.6-76.31-15.84-21.6-40.31-33.12-73.44-33.12-24.48 0-47.51 10.08-66.24 28.79-18.72 20.17-28.8 43.2-28.8 67.68 0 27.36 8.65 48.96 27.37 67.68 18.71 18.72 40.31 28.79 67.67 28.79 7.2 0 12.96-1.44 18.72-2.88 4.32-1.44 10.08-2.87 15.84-4.32 2.88-1.44 5.76-2.87 8.64-4.32 2.88-1.44 5.76-2.88 8.65-4.32v-1.44z" class="fil0"/><path id="_2_1" d="M1729.37 1059.79c0-43.2 15.84-82.08 47.52-116.64 31.68-33.11 69.12-50.4 113.75-50.4 47.52 0 87.84 15.84 122.4 48.96 33.12 33.12 50.4 72 50.4 119.51 0 46.08-17.28 84.96-50.4 116.64-33.11 31.68-73.44 47.51-118.08 47.51-44.63 0-83.51-15.84-116.63-48.96-33.12-31.68-48.96-70.55-48.96-115.2v-1.44z" class="fil0"/><path id="_3_2" d="M2954.76 246.22v960.44h-289.43V246.22z" class="fil0"/><path id="_4_3" d="M4092.31 1206.66H3828.8V835.15c0-4.32 0-7.2-1.44-11.52-1.44-12.96-4.32-25.91-10.08-37.43-5.76-10.08-17.28-15.85-33.11-15.85l-1.44-1.44c-15.84 1.44-25.91 8.64-31.68 20.16-7.2 11.52-10.07 24.48-11.52 37.44-1.44 2.88-1.44 5.76-1.44 8.64v371.5h-260.63V827.94c-1.44-14.39-4.32-27.36-10.08-40.31-7.2-11.52-18.72-17.28-34.56-17.28l-1.44-1.44c-15.84 1.44-25.92 8.64-31.68 18.72-5.76 11.52-8.65 23.04-10.08 36-1.44 4.32-1.44 7.2-1.44 10.08v372.94h-259.19V766.03c0-71.99 27.36-135.35 80.64-191.51 53.28-54.72 115.2-82.07 188.63-82.07 44.64 0 84.96 8.64 118.08 25.92 33.12 18.72 64.8 43.2 95.04 73.44 27.36-27.36 59.03-51.84 92.16-70.55 33.11-18.72 69.12-28.8 110.88-28.8 92.16 0 161.27 30.24 208.79 92.16 46.08 61.92 69.12 136.8 69.12 221.75v400.3z" class="fil0"/><path id="_5_4" d="M5209.71 1206.66H4946.2V835.15c0-4.32 0-7.2-1.44-11.52-1.44-12.96-4.32-25.91-10.08-37.43-5.76-10.08-17.28-15.85-33.11-15.85l-1.44-1.44c-15.84 1.44-25.91 8.64-31.68 20.16-7.2 11.52-10.07 24.48-11.52 37.44-1.44 2.88-1.44 5.76-1.44 8.64v371.5h-260.63V827.94c-1.44-14.39-4.32-27.36-10.08-40.31-7.2-11.52-18.72-17.28-34.56-17.28l-1.44-1.44c-15.84 1.44-25.92 8.64-31.68 18.72-5.76 11.52-8.65 23.04-10.08 36-1.44 4.32-1.44 7.2-1.44 10.08v372.94h-259.19V766.03c0-71.99 27.36-135.35 80.64-191.51 53.28-54.72 115.2-82.07 188.63-82.07 44.64 0 84.96 8.64 118.08 25.92 33.12 18.72 64.8 43.2 95.04 73.44 27.36-27.36 59.03-51.84 92.16-70.55 33.11-18.72 69.12-28.8 110.88-28.8 92.16 0 161.27 30.24 208.79 92.16 46.08 61.92 69.12 136.8 69.12 221.75v400.3z" class="fil0"/><path id="_6_5" d="M5323.46 852.44c0-97.92 36-182.88 106.55-253.43 70.56-70.56 155.52-106.56 253.43-106.56 99.36 0 185.76 36 257.76 106.56 71.99 72 107.99 158.39 107.99 257.75 0 99.36-36 184.31-107.99 256.31-72 71.99-158.4 107.99-257.76 107.99-99.35 0-184.31-37.44-254.87-110.88-70.55-73.44-105.11-158.39-105.11-256.31v-1.44zm267.82-1.44c0 27.37 8.65 51.84 27.37 72 18.71 21.6 40.31 31.68 67.67 31.68s50.4-10.07 70.56-28.79c18.71-18.72 28.79-40.32 28.79-67.68 0-27.36-10.08-51.83-30.24-70.55-20.16-18.72-43.2-27.36-70.55-27.36-24.48 0-46.08 8.64-64.8 27.36s-28.8 40.31-28.8 64.8v-1.44z" class="fil0"/><path id="_7_6" d="M6461.01 784.76V496.77c5.76 0 11.52 0 17.28-1.44 4.32 0 10.07 0 14.39-1.44 4.32 0 10.08 0 15.84-1.44h15.85c97.91 0 182.87 34.56 256.3 105.11 73.44 70.56 109.44 155.52 109.44 254.87 0 103.68-36 191.51-106.56 262.07-70.55 70.55-158.39 106.56-262.07 106.56-102.24 0-187.19-37.44-254.87-113.76-67.67-74.87-102.23-161.27-102.23-259.18v-601.9h257.75V855.32c1.44 27.36 11.52 51.83 27.36 73.44 15.84 23.04 38.88 34.56 69.12 34.56 27.36 0 51.84-10.08 70.55-30.24 18.72-18.72 28.8-41.76 28.8-69.12 0-27.36-10.08-51.84-28.8-70.56-20.16-18.71-43.2-27.36-70.55-27.36-10.08 0-20.16 1.44-30.24 5.76-10.07 4.32-18.72 8.64-27.36 14.4v-1.44z" class="fil0"/><path id="_8_7" d="M7268.81 505.41v701.25h-263.5V505.41h263.5zm-131.03-311.03c34.56 1.44 64.8 12.96 92.16 37.44 25.92 24.48 38.88 54.72 38.88 89.27 0 37.44-12.96 67.68-37.43 90.72-25.92 23.04-57.6 34.56-93.6 34.56-36 0-67.67-11.52-92.16-34.56-25.91-23.04-38.88-53.28-38.88-90.72 0-34.56 12.96-64.79 40.32-89.27 27.36-24.48 57.6-36 90.71-36v-1.44z" class="fil0"/><path id="_9_8" d="M7686.4 246.22v960.44h-263.51V246.22z" class="fil0"/><path id="_10" d="M8102.54 505.41v701.25h-263.5V505.41h263.5zm-131.03-311.03c34.56 1.44 64.8 12.96 92.16 37.44 25.92 24.48 38.88 54.72 38.88 89.27 0 37.44-12.96 67.68-37.43 90.72-25.92 23.04-57.6 34.56-93.6 34.56-36 0-67.67-11.52-92.16-34.56-25.91-23.04-38.88-53.28-38.88-90.72 0-34.56 12.96-64.79 40.32-89.27 27.36-24.48 57.6-36 90.71-36v-1.44z" class="fil0"/><path id="_11" d="M8648.28 944.59v270.7l-34.56 4.32c-11.52 1.44-23.04 1.44-34.56 1.44-102.24 0-187.19-37.44-256.31-113.76-69.12-74.87-103.68-161.27-103.68-260.63 0-99.36 37.44-182.87 110.88-251.98C8403.49 527 8487 492.44 8583.48 492.44c99.36 0 185.75 36 259.18 106.56 72 70.55 108 156.95 108 256.31v351.34h-269.28V882.67c0-27.36-8.64-53.28-24.48-76.32-17.28-23.04-41.76-34.56-73.44-34.56-25.92 0-48.96 8.64-69.12 27.36-21.6 18.72-31.68 41.76-31.68 69.12 0 27.36 8.64 50.4 27.36 69.12 18.72 18.72 40.31 30.24 67.67 31.68 12.96 0 25.92-1.44 37.44-5.76 11.52-4.32 23.04-10.08 33.12-17.28v-1.44z" class="fil0"/><path id="_12" d="M9487.76 499.65v282.22c-1.44 0-4.32 0-5.76-1.44-1.44-1.44-2.87-1.44-4.32-1.44-5.76-2.88-11.52-4.32-15.84-5.76-5.76-1.44-11.52-1.44-18.72-1.44-24.48 0-41.76 8.64-53.28 25.92-12.96 17.28-18.71 37.43-18.71 59.03v349.9H9103.3v-421.9c0-79.19 30.24-146.87 90.71-205.91 59.04-57.6 128.16-86.4 207.35-86.4 14.4 0 28.8 0 43.2 1.44 14.39 1.44 28.79 4.33 43.2 7.2v-1.44z" class="fil0"/><path id="_13" d="M10255.24 898.51h-411.82c-1.44-7.2-4.32-15.84-5.76-24.48-1.44-8.64-2.88-17.28-2.88-25.91 0-12.96 1.44-25.92 4.32-37.44 1.44-11.52 4.32-23.04 8.64-34.56l144-1.44c-4.32-21.6-14.4-40.32-30.24-54.72-15.84-14.39-36-21.59-60.48-21.59-34.56 0-60.48 12.96-79.19 37.43-18.72 24.48-30.24 51.84-34.56 82.08v14.4c-1.44 4.32-1.44 10.07-1.44 14.39 0 5.76 0 11.52 1.44 17.28 0 5.76 0 11.52 1.44 18.72 4.32 28.79 15.84 54.72 34.56 79.19 17.28 24.48 41.76 37.44 74.87 37.44 17.28 0 31.68-4.32 44.64-11.52 12.96-7.2 24.48-15.84 34.56-27.36l151.19 178.55c-33.11 27.37-69.12 47.52-109.43 60.48-40.32 14.4-82.07 21.6-123.83 21.6-102.24 0-190.08-36-260.63-109.44-72-73.44-107.99-159.83-107.99-262.07 0-96.47 37.43-181.43 110.88-251.99 73.44-70.55 156.95-105.11 253.43-105.11 97.91 0 182.87 34.56 256.3 105.11 73.44 70.56 109.44 154.08 109.44 253.43v24.48c-1.44 4.32-1.44 7.2-1.44 11.52v12.96-1.44z" class="fil0"/></g></svg>